<svg width="41" height="48" viewBox="0 0 41 48" fill="none" xmlns="http://www.w3.org/2000/svg">
<g clip-path="url(#clip0_2_95)">
<path fill-rule="evenodd" clip-rule="evenodd" d="M20.1018 0C9.03837 0 0.0775299 10.5841 0.0775299 23.6517C0.0775299 34.1175 5.80946 42.9573 13.7691 46.0912C14.7703 46.2981 15.1458 45.5886 15.1458 44.9677C15.1458 44.406 15.1207 42.5434 15.1207 40.5626C10.0896 41.6565 8.78807 39.1139 8.38758 37.7835C8.16231 37.1036 7.18613 35.0045 6.3351 34.4427C5.63425 33.9993 4.63304 32.9054 6.31007 32.8758C7.88698 32.8463 9.01334 34.5906 9.38879 35.3001C11.191 38.8774 14.0695 37.8722 15.2208 37.2514C15.3961 35.714 15.9217 34.6793 16.4974 34.088C12.042 33.4967 7.38637 31.4567 7.38637 22.41C7.38637 19.8378 8.16231 17.7092 9.43886 16.0536C9.23861 15.4623 8.53777 13.038 9.6391 9.78588C9.6391 9.78588 11.3161 9.16502 15.1458 12.2102C16.7477 11.678 18.4498 11.4119 20.1518 11.4119C21.8539 11.4119 23.5559 11.678 25.1579 12.2102C28.9875 9.13546 30.6645 9.78588 30.6645 9.78588C31.7659 13.038 31.065 15.4623 30.8648 16.0536C32.1413 17.7092 32.9173 19.8083 32.9173 22.41C32.9173 31.4863 28.2366 33.4967 23.7812 34.088C24.5071 34.8271 25.1328 36.2462 25.1328 38.4635C25.1328 41.6269 25.1078 44.1695 25.1078 44.9677C25.1078 45.5886 25.4833 46.3277 26.4845 46.0912C30.4596 44.506 33.9138 41.4883 36.3609 37.463C38.808 33.4376 40.1248 28.6073 40.126 23.6517C40.126 10.5841 31.1651 0 20.1018 0Z" fill="#3F3D56"/>
</g>
<defs>
<clipPath id="clip0_2_95">
<rect width="40.0485" height="47.3033" fill="white" transform="translate(0.0775299)"/>
</clipPath>
</defs>
</svg>
