<svg width="173" height="174" viewBox="0 0 173 174" fill="none" xmlns="http://www.w3.org/2000/svg">
<rect x="87.9937" y="6.2254" width="114.193" height="114.193" rx="5" transform="rotate(45.7618 87.9937 6.2254)" fill="#10152B"/>
<path d="M80.9809 72.6286C81.0081 74.2117 80.7227 75.7898 80.1247 77.3628C79.5267 78.9358 78.708 80.398 77.6686 81.7495C76.65 83.1005 75.4619 84.2878 74.1044 85.3113C72.7468 86.3348 71.3323 87.078 69.8608 87.5409L69.1859 86.4586C70.0532 86.0061 70.8455 85.4299 71.5627 84.73C72.28 84.03 72.8916 83.2486 73.3977 82.3856C73.9034 81.5017 74.2834 80.5784 74.5377 79.6155C74.8124 78.6315 74.9412 77.6395 74.924 76.6397C74.9043 75.494 74.719 74.4137 74.3682 73.3988C74.0173 72.3838 73.5126 71.507 72.8539 70.7682C72.1949 70.0086 71.3826 69.4183 70.4168 68.9974C69.4719 68.5761 68.385 68.376 67.156 68.3971C65.6562 68.4229 64.2865 68.7382 63.0467 69.343C61.8069 69.9477 60.6957 70.7587 59.7131 71.7757C58.7301 72.7719 57.8747 73.9222 57.1471 75.2266C56.4399 76.5098 55.8485 77.8639 55.373 79.289C54.9179 80.6929 54.5777 82.1156 54.3525 83.5572C54.1273 84.9988 54.0256 86.3549 54.0475 87.6256C54.0697 88.917 54.228 90.2478 54.5225 91.618C54.8169 92.9881 55.236 94.3353 55.7797 95.6594C56.3234 96.9836 56.9908 98.2327 57.782 99.4068C58.5731 100.581 59.4764 101.607 60.4916 102.486C61.5277 103.364 62.6649 104.063 63.9032 104.583C65.162 105.083 66.5205 105.32 67.9786 105.295C68.9784 105.277 69.9447 105.125 70.8774 104.838C71.8309 104.551 72.7412 104.171 73.6082 103.698C74.4752 103.224 75.2886 102.669 76.0486 102.03C76.8294 101.392 77.5468 100.702 78.2008 99.9618L79.2491 100.944C78.3534 102.168 77.2799 103.353 76.0286 104.5C74.7978 105.625 73.4608 106.638 72.0178 107.538C70.5744 108.417 69.0552 109.131 67.4602 109.679C65.8857 110.206 64.3173 110.483 62.755 110.51C61.2344 110.537 59.7927 110.301 58.4297 109.803C57.0873 109.285 55.8459 108.587 54.7057 107.711C53.5651 106.814 52.5365 105.769 51.62 104.576C50.724 103.362 49.9517 102.073 49.3031 100.709C48.6754 99.3447 48.1824 97.9363 47.824 96.484C47.4864 95.0312 47.3056 93.607 47.2816 92.2114C47.2468 90.1909 47.5445 88.1125 48.1745 85.9764C48.8249 83.819 49.7266 81.7303 50.8795 79.7101C52.0321 77.6692 53.3949 75.7392 54.968 73.9202C56.5619 72.1008 58.2744 70.5086 60.1053 69.1436C61.9571 67.7782 63.8866 66.6927 65.8939 65.8872C67.9216 65.0605 69.9458 64.6298 71.9663 64.595C73.2161 64.5735 74.3858 64.7409 75.4755 65.0972C76.5647 65.4327 77.5111 65.9373 78.3144 66.6111C79.1178 67.2849 79.7574 68.1282 80.2333 69.141C80.7091 70.1538 80.9583 71.3163 80.9809 72.6286ZM115.672 100.932L109.949 110.583C108.617 110.372 107.383 110.188 106.247 110.031C105.131 109.875 104.025 109.728 102.929 109.59C101.852 109.472 100.746 109.345 99.6111 109.208C98.4758 109.071 97.2521 108.907 95.94 108.714C95.4306 108.626 94.9217 108.566 94.4133 108.536C93.924 108.485 93.4256 108.465 92.9178 108.473C91.8438 108.492 90.8113 108.656 89.8204 108.966C88.849 109.276 87.9195 109.751 87.032 110.391L86.1073 109.44C86.5113 109.082 86.8556 108.656 87.1401 108.163C87.4247 107.669 87.6599 107.148 87.8457 106.598C88.0508 106.028 88.1973 105.459 88.2852 104.891C88.3731 104.323 88.4126 103.785 88.4039 103.277L88.1065 85.9943C88.0594 83.2603 88.494 80.7037 89.4102 78.3243C90.3264 75.9449 91.6093 73.8717 93.2588 72.1048C94.9276 70.318 96.8958 68.9069 99.1634 67.8717C101.45 66.8165 103.931 66.2659 106.607 66.2199C107.466 66.2051 108.298 66.2885 109.102 66.47C109.906 66.6515 110.614 66.9518 111.227 67.371C111.859 67.7899 112.367 68.3379 112.75 69.015C113.132 69.6921 113.332 70.5286 113.349 71.5246C113.365 72.4034 113.213 73.2557 112.895 74.0816C112.578 74.9075 112.132 75.6965 111.559 76.4487C111.005 77.2005 110.353 77.9052 109.603 78.5628C108.872 79.2004 108.1 79.7802 107.289 80.3021C106.477 80.8239 105.645 81.268 104.792 81.6343C103.939 82.0006 103.133 82.2879 102.375 82.4963L101.887 81.3913C102.544 80.9893 103.22 80.5284 103.914 80.0085C104.628 79.4883 105.272 78.9205 105.848 78.3051C106.423 77.6701 106.89 76.9881 107.248 76.2592C107.607 75.5107 107.778 74.7069 107.764 73.8476C107.752 73.1641 107.614 72.5414 107.351 71.9794C107.087 71.398 106.727 70.906 106.27 70.5037C105.834 70.101 105.32 69.7875 104.73 69.5632C104.16 69.3386 103.543 69.2321 102.879 69.2435C101.414 69.2687 100.131 69.6033 99.0285 70.2474C97.9262 70.8915 97.0029 71.7278 96.2588 72.7564C95.5147 73.7849 94.9584 74.947 94.59 76.2426C94.2216 77.5382 94.0489 78.85 94.0717 80.1779L94.3964 99.0423C94.4092 99.7844 94.3142 100.509 94.1115 101.215C93.9084 101.903 93.6269 102.572 93.267 103.223C92.9262 103.853 92.5166 104.456 92.0381 105.031C91.5597 105.606 91.0511 106.132 90.5124 106.61C91.1295 106.15 91.7279 105.73 92.3073 105.349C92.8865 104.948 93.4764 104.606 94.077 104.322C94.6972 104.038 95.3381 103.822 95.9997 103.674C96.661 103.506 97.392 103.415 98.1927 103.401C99.1691 103.385 100.039 103.419 100.802 103.503C101.565 103.588 102.309 103.682 103.034 103.787C103.778 103.872 104.531 103.957 105.295 104.041C106.058 104.126 106.928 104.159 107.904 104.143C108.588 104.131 109.24 104.022 109.862 103.816C110.502 103.59 111.103 103.296 111.663 102.935C112.223 102.574 112.744 102.165 113.224 101.707C113.724 101.23 114.174 100.724 114.575 100.189L115.672 100.932Z" fill="#00BFA6"/>
</svg>
