<svg width="107" height="107" viewBox="0 0 107 107" fill="none" xmlns="http://www.w3.org/2000/svg">
<path d="M50.6375 41.5375C50.6375 43.1208 50.325 44.6938 49.7 46.2563C49.075 47.8188 48.2312 49.2667 47.1687 50.6C46.1271 51.9333 44.9187 53.1 43.5437 54.1C42.1687 55.1 40.7417 55.8188 39.2625 56.2563L38.6062 55.1625C39.4812 54.725 40.2833 54.1625 41.0125 53.475C41.7417 52.7875 42.3667 52.0167 42.8875 51.1625C43.4083 50.2875 43.8042 49.3708 44.075 48.4125C44.3667 47.4333 44.5125 46.4438 44.5125 45.4438C44.5125 44.2979 44.3458 43.2146 44.0125 42.1938C43.6792 41.1729 43.1896 40.2875 42.5437 39.5375C41.8979 38.7667 41.0958 38.1625 40.1375 37.725C39.2 37.2875 38.1167 37.0688 36.8875 37.0688C35.3875 37.0688 34.0125 37.3604 32.7625 37.9438C31.5125 38.5271 30.3875 39.3188 29.3875 40.3188C28.3875 41.2979 27.5125 42.4333 26.7625 43.725C26.0333 44.9958 25.4187 46.3396 24.9187 47.7563C24.4396 49.1521 24.075 50.5688 23.825 52.0063C23.575 53.4438 23.45 54.7979 23.45 56.0688C23.45 57.3604 23.5854 58.6938 23.8562 60.0688C24.1271 61.4438 24.5229 62.7979 25.0437 64.1313C25.5646 65.4646 26.2104 66.725 26.9812 67.9125C27.7521 69.1 28.6375 70.1417 29.6375 71.0375C30.6583 71.9333 31.7833 72.6521 33.0125 73.1938C34.2625 73.7146 35.6167 73.975 37.075 73.975C38.075 73.975 39.0437 73.8396 39.9812 73.5688C40.9396 73.2979 41.8562 72.9333 42.7312 72.475C43.6062 72.0167 44.4292 71.475 45.2 70.85C45.9917 70.225 46.7208 69.5479 47.3875 68.8188L48.4187 69.8188C47.5021 71.0271 46.4083 72.1938 45.1375 73.3188C43.8875 74.4229 42.5333 75.4125 41.075 76.2875C39.6167 77.1417 38.0854 77.8292 36.4812 78.35C34.8979 78.85 33.325 79.1 31.7625 79.1C30.2417 79.1 28.8042 78.8396 27.45 78.3188C26.1167 77.7771 24.8875 77.0583 23.7625 76.1625C22.6375 75.2458 21.6271 74.1833 20.7312 72.975C19.8562 71.7458 19.1062 70.4438 18.4812 69.0688C17.8771 67.6938 17.4083 66.2771 17.075 64.8188C16.7625 63.3604 16.6062 61.9333 16.6062 60.5375C16.6062 58.5167 16.9396 56.4438 17.6062 54.3188C18.2937 52.1729 19.2312 50.1 20.4187 48.1C21.6062 46.0792 23.0021 44.1729 24.6062 42.3813C26.2312 40.5896 27.9708 39.0271 29.825 37.6938C31.7 36.3604 33.6479 35.3083 35.6687 34.5375C37.7104 33.7458 39.7417 33.35 41.7625 33.35C43.0125 33.35 44.1792 33.5375 45.2625 33.9125C46.3458 34.2667 47.2833 34.7875 48.075 35.475C48.8667 36.1625 49.4917 37.0167 49.95 38.0375C50.4083 39.0583 50.6375 40.225 50.6375 41.5375ZM86.6687 69.8813L80.3875 80.0688C78.9708 79.8188 77.6583 79.6 76.45 79.4125C75.2625 79.225 74.0854 79.0479 72.9187 78.8813C71.7729 78.7354 70.5958 78.5792 69.3875 78.4125C68.1792 78.2458 66.8771 78.0479 65.4812 77.8188C64.9396 77.7146 64.3979 77.6417 63.8562 77.6C63.3354 77.5375 62.8042 77.5063 62.2625 77.5063C61.1167 77.5063 60.0125 77.6625 58.95 77.975C57.9083 78.2875 56.9083 78.7771 55.95 79.4438L54.9812 78.4125C55.4187 78.0375 55.7937 77.5896 56.1062 77.0688C56.4187 76.5479 56.6792 75.9958 56.8875 75.4125C57.1167 74.8083 57.2833 74.2042 57.3875 73.6C57.4917 72.9958 57.5437 72.4229 57.5437 71.8813V53.4438C57.5437 50.5271 58.0542 47.8083 59.075 45.2875C60.0958 42.7667 61.5021 40.5792 63.2937 38.725C65.1062 36.85 67.2312 35.3813 69.6687 34.3188C72.1271 33.2354 74.7833 32.6938 77.6375 32.6938C78.5542 32.6938 79.4396 32.7979 80.2937 33.0063C81.1479 33.2146 81.8979 33.5479 82.5437 34.0063C83.2104 34.4646 83.7417 35.0583 84.1375 35.7875C84.5333 36.5167 84.7312 37.4125 84.7312 38.475C84.7312 39.4125 84.5542 40.3188 84.2 41.1938C83.8458 42.0688 83.3562 42.9021 82.7312 43.6938C82.1271 44.4854 81.4187 45.225 80.6062 45.9125C79.8146 46.5792 78.9812 47.1833 78.1062 47.725C77.2312 48.2667 76.3354 48.725 75.4187 49.1C74.5021 49.475 73.6375 49.7667 72.825 49.975L72.325 48.7875C73.0333 48.3708 73.7625 47.8917 74.5125 47.35C75.2833 46.8083 75.9812 46.2146 76.6062 45.5688C77.2312 44.9021 77.7417 44.1833 78.1375 43.4125C78.5333 42.6208 78.7312 41.7667 78.7312 40.85C78.7312 40.1208 78.5958 39.4542 78.325 38.85C78.0542 38.225 77.6792 37.6938 77.2 37.2563C76.7417 36.8188 76.2 36.475 75.575 36.225C74.9708 35.975 74.3146 35.85 73.6062 35.85C72.0437 35.85 70.6687 36.1833 69.4812 36.85C68.2937 37.5167 67.2937 38.3917 66.4812 39.475C65.6687 40.5583 65.0542 41.7875 64.6375 43.1625C64.2208 44.5375 64.0125 45.9333 64.0125 47.35V67.475C64.0125 68.2667 63.8979 69.0375 63.6687 69.7875C63.4396 70.5167 63.1271 71.225 62.7312 71.9125C62.3562 72.5792 61.9083 73.2146 61.3875 73.8188C60.8667 74.4229 60.3146 74.975 59.7312 75.475C60.3979 74.9958 61.0437 74.5583 61.6687 74.1625C62.2937 73.7458 62.9292 73.3917 63.575 73.1C64.2417 72.8083 64.9292 72.5896 65.6375 72.4438C66.3458 72.2771 67.1271 72.1938 67.9812 72.1938C69.0229 72.1938 69.95 72.2458 70.7625 72.35C71.575 72.4542 72.3667 72.5688 73.1375 72.6938C73.9292 72.7979 74.7312 72.9021 75.5437 73.0063C76.3562 73.1104 77.2833 73.1625 78.325 73.1625C79.0542 73.1625 79.7521 73.0583 80.4187 72.85C81.1062 72.6208 81.7521 72.3188 82.3562 71.9438C82.9604 71.5688 83.5229 71.1417 84.0437 70.6625C84.5854 70.1625 85.075 69.6313 85.5125 69.0688L86.6687 69.8813Z" fill="#00BFA6"/>
</svg>
