<svg width="50" height="50" viewBox="0 0 50 50" fill="none" xmlns="http://www.w3.org/2000/svg">
<path d="M48.9451 0H1.05485C0.472273 0 0 0.535545 0 1.19617V48.8038C0 49.4645 0.472273 50 1.05485 50H48.9451C49.5277 50 50 49.4645 50 48.8038V1.19617C50 0.535545 49.5277 0 48.9451 0Z" fill="#3F3D56"/>
<path d="M23.9105 15.6287C23.9105 16.481 23.7622 17.3277 23.4656 18.1687C23.1688 19.0098 22.7684 19.7892 22.2639 20.5069C21.7696 21.2246 21.196 21.8526 20.5432 22.3909C19.8905 22.9291 19.2131 23.316 18.511 23.5515L18.1995 22.9628C18.6149 22.7273 18.9956 22.4245 19.3417 22.0544C19.6878 21.6844 19.9845 21.2694 20.2317 20.8097C20.479 20.3387 20.6669 19.8452 20.7954 19.3294C20.9339 18.8023 21.0031 18.2697 21.0031 17.7314C21.0031 17.1146 20.924 16.5315 20.7658 15.982C20.6075 15.4325 20.3751 14.9559 20.0686 14.5522C19.762 14.1372 19.3813 13.8121 18.9263 13.5766C18.4813 13.3411 17.9671 13.2233 17.3836 13.2233C16.6716 13.2233 16.0189 13.3803 15.4256 13.6943C14.8322 14.0083 14.2982 14.4344 13.8235 14.9727C13.3488 15.4998 12.9335 16.111 12.5775 16.8062C12.2313 17.4903 11.9396 18.2136 11.7023 18.9761C11.4748 19.7275 11.3018 20.49 11.1831 21.2638C11.0644 22.0376 11.0051 22.7665 11.0051 23.4506C11.0051 24.1459 11.0694 24.8636 11.1979 25.6036C11.3265 26.3438 11.5144 27.0727 11.7616 27.7904C12.0088 28.5081 12.3154 29.1866 12.6813 29.8258C13.0472 30.4651 13.4675 31.0258 13.9422 31.5079C14.4268 31.9902 14.9608 32.377 15.5442 32.6687C16.1376 32.949 16.7804 33.089 17.4726 33.089C17.9473 33.089 18.4072 33.0163 18.8522 32.8703C19.3071 32.7246 19.7422 32.5285 20.1576 32.2818C20.5729 32.0349 20.9635 31.7435 21.3295 31.4069C21.7053 31.0706 22.0513 30.7062 22.3677 30.3136L22.8574 30.8519C22.4222 31.5024 21.903 32.1304 21.2998 32.7359C20.7064 33.3301 20.0636 33.8629 19.3714 34.334C18.6791 34.7938 17.9523 35.1636 17.1908 35.444C16.4392 35.7132 15.6926 35.8478 14.9509 35.8478C14.229 35.8478 13.5466 35.7077 12.9038 35.4273C12.2709 35.1356 11.6874 34.7488 11.1534 34.2665C10.6194 33.7732 10.1398 33.2012 9.71454 32.5507C9.29918 31.8892 8.94316 31.1883 8.6465 30.4481C8.3597 29.7081 8.13719 28.9455 7.97897 28.1605C7.83063 27.3756 7.75645 26.6074 7.75645 25.856C7.75645 24.7682 7.91468 23.6524 8.23114 22.5086C8.55749 21.3535 9.00251 20.2378 9.5662 19.1612C10.1299 18.0734 10.7924 17.0473 11.5539 16.0829C12.3253 15.1185 13.151 14.2774 14.0312 13.5597C14.9212 12.842 15.8459 12.2757 16.8051 11.8608C17.7743 11.4347 18.7385 11.2216 19.6977 11.2216C20.2911 11.2216 20.8449 11.3225 21.3591 11.5244C21.8734 11.715 22.3184 11.9954 22.6941 12.3654C23.07 12.7355 23.3667 13.1953 23.5842 13.7448C23.8017 14.2943 23.9105 14.9222 23.9105 15.6287ZM41.0139 30.8856L38.0323 36.3691C37.3599 36.2347 36.7369 36.117 36.1633 36.016C35.5996 35.9151 35.0409 35.8199 34.4871 35.7301C33.9432 35.6514 33.3844 35.5675 32.8108 35.4777C32.2373 35.388 31.6192 35.2816 30.9565 35.1581C30.6996 35.1021 30.4424 35.0627 30.1852 35.0404C29.938 35.0067 29.6859 34.9899 29.4287 34.9899C28.8848 34.9899 28.3608 35.0739 27.8563 35.2421C27.3618 35.4105 26.8871 35.6739 26.4323 36.0328L25.9724 35.4777C26.1802 35.2758 26.3582 35.0347 26.5065 34.7543C26.6549 34.4742 26.7785 34.1768 26.8772 33.8629C26.9861 33.5378 27.0652 33.2124 27.1146 32.8873C27.1641 32.562 27.1888 32.2536 27.1888 31.9622V22.0376C27.1888 20.4676 27.431 19.0042 27.9156 17.6473C28.4002 16.2904 29.0677 15.1129 29.9181 14.1148C30.7787 13.1056 31.7873 12.315 32.9443 11.743C34.1114 11.1599 35.3722 10.8683 36.727 10.8683C37.162 10.8683 37.5825 10.9244 37.9878 11.0366C38.3932 11.1487 38.7494 11.3281 39.0559 11.5748C39.3724 11.8216 39.6245 12.1411 39.8125 12.5336C40.0004 12.9261 40.0943 13.4083 40.0943 13.9803C40.0943 14.4849 40.0101 14.9727 39.8422 15.4437C39.6741 15.9147 39.4416 16.3633 39.1449 16.7894C38.8582 17.2155 38.5219 17.6136 38.1363 17.9837C37.7603 18.3426 37.3648 18.6678 36.9496 18.9593C36.5342 19.2509 36.1089 19.4976 35.6738 19.6995C35.2386 19.9013 34.8283 20.0583 34.4426 20.1705L34.2053 19.5312C34.5416 19.307 34.8876 19.049 35.2437 18.7575C35.6095 18.4659 35.9407 18.1463 36.2376 17.7987C36.5342 17.4398 36.7764 17.0529 36.9643 16.638C37.1523 16.2119 37.2462 15.7521 37.2462 15.2587C37.2462 14.8662 37.1819 14.5073 37.0534 14.1821C36.9247 13.8457 36.7468 13.5597 36.5194 13.3242C36.3017 13.0887 36.0447 12.9037 35.7479 12.7691C35.4612 12.6346 35.1496 12.5673 34.8135 12.5673C34.0717 12.5673 33.419 12.7467 32.8553 13.1056C32.2916 13.4644 31.8169 13.9354 31.4312 14.5185C31.0456 15.1017 30.7538 15.7633 30.5561 16.5034C30.3582 17.2436 30.2595 17.9949 30.2595 18.7575V29.5904C30.2595 30.0165 30.2051 30.4313 30.0962 30.8352C29.9876 31.2275 29.8392 31.6088 29.6513 31.9789C29.4732 32.3378 29.2605 32.6799 29.0133 33.005C28.7662 33.3301 28.504 33.6273 28.2272 33.8966C28.5437 33.6385 28.8502 33.4031 29.1468 33.1899C29.4435 32.9658 29.7451 32.7751 30.0517 32.6182C30.3681 32.4612 30.6945 32.3433 31.0308 32.2648C31.3671 32.1751 31.738 32.1304 32.1432 32.1304C32.6378 32.1304 33.0779 32.1584 33.4635 32.2144C33.8492 32.2706 34.2251 32.3321 34.5909 32.3995C34.9667 32.4555 35.3475 32.5115 35.7331 32.5677C36.1188 32.6237 36.5589 32.6517 37.0534 32.6517C37.3994 32.6517 37.7308 32.5957 38.0473 32.4835C38.3736 32.3603 38.6802 32.1976 38.9669 31.9957C39.2536 31.7938 39.5207 31.5641 39.7679 31.306C40.0251 31.0368 40.2574 30.751 40.4652 30.4481L41.0139 30.8856Z" fill="#00BFA6"/>
</svg>
