<svg width="41" height="48" viewBox="0 0 41 48" fill="none" xmlns="http://www.w3.org/2000/svg">
<path d="M9.09125 47.3024V15.3869H0.50641V47.3024H9.09125ZM4.79994 11.0267C7.79363 11.0267 9.65705 8.57599 9.65705 5.51338C9.60128 2.38171 7.79374 -0.00100708 4.85675 -0.00100708C1.92022 -0.00100708 -9.15527e-05 2.38176 -9.15527e-05 5.51338C-9.15527e-05 8.57613 1.86287 11.0267 4.7439 11.0267H4.79967H4.79994ZM13.8429 47.3024H22.4278V29.4792C22.4278 28.5253 22.4836 27.5725 22.7103 26.8906C23.3309 24.9848 24.7434 23.0109 27.1149 23.0109C30.2214 23.0109 31.4642 25.9376 31.4642 30.2281V47.3022H40.0485V29.0021C40.0485 19.1989 35.8132 14.6376 30.1649 14.6376C25.5337 14.6376 23.5003 17.8363 22.3707 20.015H22.428V15.3862H13.8431C13.9558 18.381 13.8431 47.3017 13.8431 47.3017L13.8429 47.3024Z" fill="#3F3D56"/>
</svg>
